Land_normalized_Motion_pl10
version=1
nRows=23
nColumns=43
inDegrees=yes
endheader
time		pelvis_tilt		pelvis_list		pelvis_rotation		pelvis_tx		pelvis_ty		pelvis_tz		hip_flexion_r		hip_adduction_r		hip_rotation_r		knee_angle_r		ankle_angle_r		subtalar_angle_r		mtp_angle_r		hip_flexion_l		hip_adduction_l		hip_rotation_l		knee_angle_l		ankle_angle_l		subtalar_angle_l		mtp_angle_l		lumbar_extension		lumbar_bending		lumbar_rotation		neck_flexion		neck_lateral_bending		neck_rotation		arm_flex_r		arm_add_r		arm_rot_r		elbow_flex_r		pro_sup_r		wrist_flex_r		wrist_dev_r		hand_finger_flex_r		arm_flex_l		arm_add_l		arm_rot_l		elbow_flex_l		pro_sup_l		wrist_flex_l		wrist_dev_l		hand_finger_flex_l		
0.961667		3.740145		5.600868		88.053871		-0.006227		0.427389		0.410599		90.708925		-11.332069		-2.810695		-133.790674		32.219429		6.770195		-0.527561		91.336085		-8.173346		7.038971		-138.146314		34.728810		-4.741626		-4.786045		-61.421876		3.633974		5.279915		28.453226		-0.732350		2.987961		17.719180		-50.281411		-14.843115		83.975716		103.777629		-54.878477		-24.907336		58.021071		29.047963		-51.347501		8.953933		85.148559		112.768026		-38.739375		5.397141		90.000210		
0.964495		3.816443		5.593706		88.096184		-0.005989		0.421998		0.409516		91.390522		-11.468942		-2.726476		-134.567105		32.349802		7.035503		-0.512350		92.072438		-8.266033		7.391289		-138.903020		34.985059		-4.129524		-4.668310		-61.558304		3.655486		5.331227		28.370619		-0.723448		2.972155		20.499444		-51.176495		-12.801657		84.149947		104.068862		-54.687131		-24.674854		58.113882		32.320569		-51.994627		11.211467		85.177329		112.786531		-38.481768		6.106676		90.000210		
0.967323		3.871009		5.622687		88.149756		-0.005737		0.416769		0.408478		92.010013		-11.588731		-2.596782		-135.319179		32.530406		7.328375		-0.517729		92.755189		-8.384226		7.707195		-139.630228		35.263990		-3.491448		-4.550136		-61.723954		3.661864		5.371873		28.282936		-0.707065		2.946388		23.319796		-52.048121		-10.683043		84.306238		104.364211		-54.538640		-24.334595		58.200057		35.704054		-52.581860		13.630664		85.134975		112.653623		-38.361038		6.857325		90.000210		
0.970152		3.895724		5.685582		88.201595		-0.005481		0.411742		0.407464		92.571621		-11.701891		-2.418722		-136.053205		32.763465		7.653377		-0.552317		93.366939		-8.512135		7.984274		-140.326108		35.552041		-2.858759		-4.443682		-61.920072		3.641679		5.390639		28.197622		-0.680522		2.912300		26.195958		-52.885356		-8.484703		84.460333		104.688480		-54.378780		-23.871234		58.285704		39.206015		-53.111614		16.220362		84.993829		112.378119		-38.350542		7.563211		90.000210		
0.972980		3.889963		5.771966		88.266803		-0.005195		0.406903		0.406501		93.086584		-11.809830		-2.202076		-136.754860		33.042680		8.002469		-0.617937		93.928858		-8.660242		8.212828		-140.992231		35.834849		-2.263722		-4.364866		-62.142500		3.602366		5.381488		28.153315		-0.649854		2.871680		29.124801		-53.669802		-6.221863		84.593452		105.011859		-54.147290		-23.354673		58.356769		42.808873		-53.571939		18.935666		84.756921		112.010770		-38.384837		8.152172		90.000210		
0.975808		3.857550		5.888758		88.333129		-0.004911		0.402282		0.405591		93.542593		-11.906924		-1.945133		-137.427172		33.368000		8.362597		-0.718638		94.430883		-8.817409		8.386521		-141.627847		36.125933		-1.707189		-4.318939		-62.401297		3.538504		5.352507		28.126937		-0.608793		2.819478		32.112514		-54.412121		-3.894191		84.703259		105.317600		-53.892397		-22.810743		58.409873		46.504996		-53.964674		21.780125		84.446333		111.548869		-38.481464		8.652110		90.000210		
0.978636		3.802560		6.026631		88.399715		-0.004638		0.397879		0.404740		93.949474		-12.002961		-1.668933		-138.066389		33.733786		8.727635		-0.858592		94.876667		-8.979932		8.505482		-142.234834		36.417506		-1.202250		-4.317436		-62.688889		3.455257		5.304428		28.113432		-0.563121		2.758861		35.184475		-55.097396		-1.488131		84.777214		105.590712		-53.610687		-22.262033		58.451040		50.292879		-54.299039		24.773700		84.070020		111.032162		-38.621191		9.052310		90.000210		
0.981465		3.677187		6.231650		88.457626		-0.004357		0.393744		0.403930		94.277267		-12.086492		-1.326955		-138.695026		34.171127		9.065205		-1.099590		95.194600		-9.156311		8.535108		-142.821358		36.746506		-0.741758		-4.394126		-63.052467		3.302885		5.204934		28.103168		-0.433194		2.709719		38.344277		-55.834611		1.123468		84.822571		105.858215		-53.487622		-21.689535		58.516815		54.212654		-54.588262		27.998268		83.648463		110.247585		-39.063583		9.412750		90.000210		
0.984293		3.606704		6.337843		88.540809		-0.004085		0.389663		0.403169		94.646216		-12.195285		-1.065047		-139.261613		34.589956		9.406330		-1.342114		95.635628		-9.313082		8.591016		-143.372955		37.027176		-0.407722		-4.513765		-63.334146		3.225146		5.124099		28.177672		-0.458539		2.616271		41.545708		-56.334720		3.587796		84.833604		106.050597		-53.136590		-21.233350		58.609722		58.050376		-54.785308		31.117184		83.172308		109.813853		-39.231478		9.559477		90.000210		
0.987121		3.390952		6.555828		88.595407		-0.003773		0.386064		0.402558		94.906618		-12.273222		-0.667225		-139.797048		35.120151		9.672937		-1.881035		95.830623		-9.516772		8.445621		-143.859679		37.435862		-0.085486		-4.868401		-63.768817		3.018490		4.867295		28.357727		-0.399447		2.659458		45.075510		-56.808103		6.545413		84.749133		106.181413		-53.395102		-20.732211		58.760154		62.076337		-55.093779		34.630201		82.718364		108.589037		-40.189417		9.746457		90.000210		
0.989949		3.263984		6.738166		88.668157		-0.003540		0.382565		0.401976		95.132191		-12.394066		-0.400006		-140.292874		35.673992		9.928825		-2.524346		96.080830		-9.681597		8.392294		-144.334177		37.807118		0.173409		-5.353938		-64.151479		2.899354		4.636755		28.427647		-0.325146		2.683678		48.730449		-57.093964		9.532473		84.535281		106.244645		-53.278060		-20.411891		59.076671		65.941531		-55.276444		37.902458		82.205611		107.939571		-40.619391		9.705679		90.000210		
0.992778		3.178214		6.871474		88.758445		-0.003344		0.379146		0.401432		95.356522		-12.549378		-0.212943		-140.749822		36.240809		10.148017		-3.125722		96.376723		-9.811375		8.368285		-144.777461		38.168122		0.360952		-5.860088		-64.478000		2.830545		4.396205		28.458888		-0.262226		2.710753		52.429083		-57.185592		12.513237		84.231700		106.311493		-53.008020		-20.172544		59.298373		69.667813		-55.370928		40.991276		81.684932		107.585258		-40.681866		9.628340		90.000210		
0.995606		3.162489		6.916244		88.867790		-0.003221		0.375707		0.400869		95.616532		-12.745036		-0.135478		-141.178197		36.779174		10.342926		-3.449924		96.774505		-9.890619		8.423695		-145.199665		38.491332		0.474977		-6.168858		-64.695852		2.834926		4.262663		28.435220		-0.274422		2.634136		55.887895		-57.157247		15.135435		83.918858		106.476769		-52.354991		-20.015031		59.421433		73.240464		-55.226752		43.859200		81.076973		107.764983		-40.268263		9.476967		90.000210		
0.998434		3.021519		7.097063		88.959520		-0.002975		0.372863		0.400515		95.707937		-12.905092		0.028532		-141.563173		37.429229		10.432459		-4.058593		96.887500		-10.033464		8.316013		-145.528970		38.972298		0.641482		-6.734355		-65.108338		2.738229		3.843963		28.530063		-0.185475		2.837226		59.796784		-56.896659		18.365853		83.420899		106.531352		-52.355875		-19.821188		59.540143		76.952448		-55.407433		47.054865		80.634903		107.146135		-40.484994		9.420005		90.000210		
1.001263		2.974220		7.176242		89.075440		-0.002822		0.369980		0.400155		95.840046		-13.121204		0.056308		-141.910478		38.061365		10.523389		-4.615011		97.120795		-10.118612		8.311970		-145.833103		39.422200		0.763186		-7.265416		-65.398888		2.748821		3.496865		28.549247		-0.179443		2.964253		63.514634		-56.444365		21.310068		82.855524		106.631745		-52.079565		-19.784378		59.755683		80.442244		-55.446167		49.961481		80.161777		107.043262		-40.259296		9.245000		90.000210		
1.004091		2.934657		7.264933		89.201309		-0.002673		0.367304		0.399838		95.917017		-13.349704		0.055885		-142.230613		38.723173		10.586240		-5.168344		97.291736		-10.183602		8.328702		-146.097351		39.914560		0.884384		-7.790944		-65.698534		2.772818		3.148629		28.560466		-0.170326		3.111953		67.121108		-55.883524		24.136237		82.232307		106.771860		-51.813847		-19.802244		59.980759		83.823495		-55.405324		52.757903		79.673958		107.030926		-39.947819		9.059321		90.000210		
1.006919		2.848744		7.373887		89.316349		-0.002416		0.364901		0.399611		95.937852		-13.540846		0.069214		-142.524093		39.463538		10.561276		-5.881981		97.363702		-10.282957		8.301504		-146.305266		40.512999		1.065761		-8.456562		-66.056270		2.763956		2.632491		28.714627		-0.127105		3.483045		70.749288		-55.061305		27.042476		81.506308		106.770750		-51.849037		-19.861924		60.152382		87.303477		-55.582555		55.708422		79.366063		106.671161		-39.595056		8.945862		90.000210		
1.009747		2.882738		7.391579		89.482926		-0.002357		0.362493		0.399346		95.977596		-13.823054		-0.045843		-142.780339		40.097312		10.645393		-6.267203		97.560540		-10.291566		8.381552		-146.498815		41.008369		1.174027		-8.820139		-66.268995		2.865516		2.441928		28.631019		-0.146352		3.472244		73.775267		-54.410217		29.185679		80.871556		107.045808		-51.300034		-20.010214		60.350531		90.380303		-55.165814		58.119710		78.765646		107.190858		-38.845107		8.692557		90.000210		
1.012576		2.826537		7.547786		89.617530		-0.001931		0.360737		0.399260		95.811291		-14.010708		-0.141573		-142.991835		40.974938		10.574328		-6.763347		97.443698		-10.381991		8.426058		-146.602235		41.762457		1.369678		-9.281408		-66.710126		2.822153		1.994669		28.814379		0.103025		3.772565		76.815960		-53.502314		31.430890		80.174431		107.034144		-51.179850		-20.032905		60.353202		93.843627		-55.093616		60.943271		78.443132		107.075287		-38.010316		8.557557		90.000210		
1.015404		2.807061		7.507530		89.785410		-0.001837		0.358631		0.399070		95.900167		-14.260381		-0.180702		-143.201052		41.457728		10.661224		-7.149563		97.615398		-10.404864		8.436503		-146.733796		42.236234		1.566018		-9.637009		-66.884197		2.892027		1.758785		28.831014		0.040987		3.814251		79.488901		-52.754755		33.265115		79.538837		107.281039		-50.802941		-20.267446		60.399136		96.821798		-54.609023		63.338395		77.910294		107.317040		-37.225424		8.359942		90.000210		
1.018232		2.713945		7.545781		89.937535		-0.001456		0.357067		0.399035		95.841726		-14.434683		-0.223250		-143.357870		42.230568		10.638013		-7.685534		97.559941		-10.489385		8.393120		-146.786355		42.965027		1.777859		-10.134695		-67.210889		2.854113		1.319891		29.042967		0.199849		4.140387		82.126367		-51.810016		35.114272		78.842823		107.251360		-50.767528		-20.465363		60.334594		100.043688		-54.376438		65.992820		77.615469		107.039297		-36.492479		8.190525		90.000210		
1.021061		2.673172		7.490508		90.114448		-0.001241		0.355308		0.398905		95.932982		-14.615895		-0.204362		-143.535441		42.650088		10.737830		-8.041267		97.677981		-10.501555		8.427007		-146.878030		43.431485		2.007440		-10.458788		-67.383018		2.880399		1.108881		29.126807		0.228360		4.170213		84.441829		-51.108285		36.632556		78.260847		107.471945		-50.403506		-20.729906		60.315669		102.819899		-53.710405		68.167357		77.075746		107.223981		-35.692996		8.002254		90.000210		
1.023889		2.565515		7.483979		90.275647		-0.000774		0.354064		0.398937		95.919905		-14.729970		-0.181542		-143.659017		43.288551		10.757988		-8.526184		97.622657		-10.588004		8.365452		-146.890308		44.105058		2.234942		-10.903949		-67.679316		2.810340		0.715577		29.391032		0.430938		4.440613		86.692195		-50.230654		38.111708		77.631998		107.390317		-50.348222		-20.941456		60.126958		105.878440		-53.272588		70.656899		76.763120		106.842347		-34.951627		7.820542		90.000210		
